
<svg width="512" height="512" xmlns="http://www.w3.org/2000/svg">
  <defs>
    <linearGradient id="bg" x1="0%" y1="0%" x2="100%" y2="100%">
      <stop offset="0%" style="stop-color:#3b82f6;stop-opacity:1" />
      <stop offset="50%" style="stop-color:#2563eb;stop-opacity:1" />
      <stop offset="100%" style="stop-color:#1d4ed8;stop-opacity:1" />
    </linearGradient>
    <filter id="shadow" x="-50%" y="-50%" width="200%" height="200%">
      <feDropShadow dx="1" dy="2" stdDeviation="2" flood-color="#000" flood-opacity="0.15"/>
    </filter>
  </defs>
  
  <!-- Background with subtle radius -->
  <rect x="0" y="0" width="512" height="512" rx="76.8" fill="url(#bg)" />
  
  <!-- Main icon group -->
  <g transform="translate(256, 256)" fill="#ffffff" filter="url(#shadow)">
    
    <!-- Medical clipboard/chart icon -->
    <g transform="scale(5.12)">
      <!-- Clipboard background -->
      <rect x="-18" y="-20" width="36" height="40" rx="2" fill="#ffffff" opacity="0.9"/>
      <rect x="-16" y="-18" width="32" height="36" rx="1" fill="#1e40af" opacity="0.3"/>
      
      <!-- Clip at top -->
      <rect x="-6" y="-22" width="12" height="6" rx="1" fill="#ffffff" opacity="0.8"/>
      
      <!-- Text lines on clipboard -->
      <rect x="-12" y="-12" width="16" height="2" rx="1" fill="#1e40af" opacity="0.6"/>
      <rect x="-12" y="-7" width="20" height="2" rx="1" fill="#1e40af" opacity="0.6"/>
      <rect x="-12" y="-2" width="18" height="2" rx="1" fill="#1e40af" opacity="0.6"/>
      <rect x="-12" y="3" width="14" height="2" rx="1" fill="#1e40af" opacity="0.6"/>
      
      <!-- Medical cross accent -->
      <g transform="translate(12, -8)" fill="#ef4444">
        <rect x="-1.5" y="-4" width="3" height="8" rx="1"/>
        <rect x="-4" y="-1.5" width="8" height="3" rx="1"/>
      </g>
      
      <!-- Stylized "C" for ClerkSmart -->
      <g transform="translate(-20, 8)" fill="#ffffff" opacity="0.8">
        <path d="M -4 -6 Q -8 -6 -8 -2 Q -8 2 -4 2 L -2 2 L -2 0 L -4 0 Q -6 0 -6 -2 Q -6 -4 -4 -4 L -2 -4 L -2 -6 Z" />
      </g>
    </g>
  </g>
</svg>